<svg width="15" height="19" viewBox="0 0 15 19" fill="none" xmlns="http://www.w3.org/2000/svg">
<path fill-rule="evenodd" clip-rule="evenodd" d="M4.03846 8.65385C4.03846 8.33538 4.29692 8.07692 4.61538 8.07692C4.93385 8.07692 5.19231 8.33538 5.19231 8.65385V15.5769C5.19231 15.896 4.93385 16.1538 4.61538 16.1538C4.29692 16.1538 4.03846 15.896 4.03846 15.5769V8.65385ZM6.92308 8.65385C6.92308 8.33538 7.18154 8.07692 7.5 8.07692C7.81846 8.07692 8.07692 8.33538 8.07692 8.65385V15.5769C8.07692 15.896 7.81846 16.1538 7.5 16.1538C7.18154 16.1538 6.92308 15.896 6.92308 15.5769V8.65385ZM9.80769 8.65385C9.80769 8.33538 10.0662 8.07692 10.3846 8.07692C10.7031 8.07692 10.9615 8.33538 10.9615 8.65385V15.5769C10.9615 15.896 10.7031 16.1538 10.3846 16.1538C10.0662 16.1538 9.80769 15.896 9.80769 15.5769V8.65385ZM1.15385 16.1538C1.15385 17.4283 2.18712 18.4615 3.46154 18.4615H11.5385C12.8129 18.4615 13.8462 17.4283 13.8462 16.1538V6.92308H1.15385V16.1538ZM9.23077 2.30769H5.76923V1.73077C5.76923 1.41173 6.02769 1.15385 6.34615 1.15385H8.65385C8.97231 1.15385 9.23077 1.41173 9.23077 1.73077V2.30769ZM13.8462 2.30769H10.3846V1.15385C10.3846 0.516923 9.86769 0 9.23077 0H5.76923C5.13231 0 4.61538 0.516923 4.61538 1.15385V2.30769H1.15385C0.516923 2.30769 0 2.82462 0 3.46154V4.61538C0 5.25231 0.516342 5.76865 1.15327 5.76923H13.8473C14.4837 5.76865 15 5.25231 15 4.61538V3.46154C15 2.82462 14.4831 2.30769 13.8462 2.30769Z" fill="#8287B0"/>
</svg>
